<?xml version="1.0" encoding="utf-8"?>
<!-- Generator: Adobe Illustrator 16.2.1, SVG Export Plug-In . SVG Version: 6.00 Build 0)  -->
<!DOCTYPE svg PUBLIC "-//W3C//DTD SVG 1.1//EN" "http://www.w3.org/Graphics/SVG/1.1/DTD/svg11.dtd">
<svg version="1.1" id="Capa_1" xmlns="http://www.w3.org/2000/svg" xmlns:xlink="http://www.w3.org/1999/xlink" x="0px" y="0px"
	 width="100px" height="100px" viewBox="400 250 100 100" enable-background="new 400 250 100 100" xml:space="preserve">
<g>
	<path fill="#FFFFFF" d="M489.524,283.744c-8.666-20.161-22.608-35.518-29.665-32.647c-11.98,4.868,7.138,28.254-51.695,52.169
		c-5.083,2.064-6.37,10.332-4.243,15.273c2.122,4.943,9.074,9.862,14.157,7.798c0.879-0.357,4.108-1.397,4.108-1.397
		c3.63,4.871,7.43,1.984,8.776,5.079c1.618,3.719,5.14,11.803,6.335,14.553c1.2,2.748,3.914,5.294,5.885,4.546
		c1.964-0.748,8.658-3.296,11.219-4.27c2.559-0.973,3.168-3.255,2.388-5.055c-0.845-1.94-4.304-2.51-5.29-4.772
		s-4.211-9.517-5.137-11.804c-1.261-3.108,1.417-5.639,5.307-6.043c26.779-2.79,31.783,13.746,40.9,10.04
		C499.625,324.344,498.188,303.906,489.524,283.744z M486.509,316.448c-1.566,0.639-12.105-7.675-18.841-23.347
		c-6.732-15.67-5.886-29.997-4.323-30.633c1.565-0.637,11.845,9.39,18.578,25.06C488.656,303.199,488.076,315.812,486.509,316.448z"
		/>
</g>
</svg>
