<?xml version="1.0" encoding="utf-8"?>
<!-- Generator: Adobe Illustrator 25.4.1, SVG Export Plug-In . SVG Version: 6.00 Build 0)  -->
<svg version="1.1" id="圖層_1" xmlns="http://www.w3.org/2000/svg" xmlns:xlink="http://www.w3.org/1999/xlink" x="0px" y="0px"
	 viewBox="0 0 186.1 18.9" style="enable-background:new 0 0 186.1 18.9;" xml:space="preserve">
<style type="text/css">
	.st0{fill:#FFFFFF;}
	.st1{fill:#C6000B;}
</style>
<g>
	<path class="st0" d="M17.2,15.1c0.9,0.4,1.1,0.7,1,1.3c-0.2,1.3-1.4,1.8-6,1.8H9.7c-2.7,0-3.7-0.4-3.3-2.7L7,12l-6.9,0.8L0,12.2
		l7.2-0.9l0.6-3.5L2.1,8.5L2,8l5.9-0.7L8.5,4C6.3,4.3,4.1,4.5,2.1,4.6V4.3c4.8-0.9,10.8-2.8,14-4.2l2.3,2.5c-0.3,0.2-0.8,0.3-1.4,0
		c-1.5,0.4-3.3,0.7-5.3,1L11.6,4L11,6.9l2.3-0.3l1.8-2.2c0,0,1.8,1.1,2.9,1.9c-0.1,0.2-0.3,0.4-0.6,0.4L11,7.5L10.3,11l4.1-0.5
		l1.8-2.2c0,0,1.8,1.1,2.9,1.9c-0.1,0.2-0.3,0.4-0.6,0.4l-8.3,1l-0.5,3.1c-0.1,0.5,0.2,0.7,0.9,0.7H13c0.6,0,1.3,0,1.7,0
		s0.6-0.1,0.9-0.4c0.4-0.5,1-1.5,1.9-3h0.2L17.2,15.1z"/>
	<path class="st0" d="M30.7,2.5c-1.4,2.7-3.8,7.6-4.3,8.8c-0.3,0.7-0.6,1.5-0.7,2.1c-0.2,1.2,0.7,1.8,0.3,3.6
		c-0.2,1.1-1.1,1.8-2.3,1.8c-0.5,0-1.1-0.2-1.2-1c0.8-2.1,1.1-4.1,0.6-4.4c-0.3-0.2-0.6-0.3-1-0.3l0.1-0.4h0.9c0.3,0,0.4,0,0.7-0.4
		c0.7-0.8,0.7-0.8,6.6-9.8H30.7z M22.9,4.8c6,0.1,3.2,4.7,1.1,3.2c-0.1-1.1-0.7-2.3-1.2-3.1L22.9,4.8z M25.6,0.4
		c6.1,0.3,3.2,5,0.9,3.4c-0.1-1.2-0.6-2.4-1.1-3.3L25.6,0.4z M36.8,3.5c7.3,1.6,3.8,7.5,1.3,5.3c0-0.5,0-1-0.1-1.6
		c-1.9,0.6-4.8,1.3-8.1,2.1c-0.1,0.1-0.3,0.3-0.4,0.4l2.5,1h4.4L38,9.2l2,1.8c-0.2,0.2-0.4,0.3-0.9,0.4L37.9,18
		c0,0.1-0.9,0.6-2.4,0.6H35l0.3-1.7h-4.7l-0.2,1.3c0,0.2-0.9,0.6-2.3,0.6h-0.5l1.6-9c-0.1,0-0.2,0.1-0.3,0.1l-0.3-3.2
		c0,0,0.6-0.1,0.9-0.3c1.6-1,4.2-4.4,5-6.4l3.8,1.3c-0.1,0.2-0.4,0.4-0.8,0.4c-1.6,1.7-4.3,3.7-6.6,5c1.8,0,4.3,0,7,0
		c-0.3-1.1-0.7-2.2-1.3-3L36.8,3.5z M31.7,11.2l-0.9,5.1h4.7l0.9-5.1C36.4,11.2,31.7,11.2,31.7,11.2z"/>
	<path class="st0" d="M63.8,2.1c-0.2,0.2-0.5,0.3-0.9,0.4l-2.7,15.3c-0.1,0.2-1.4,0.8-2.4,0.8h-0.4l0.3-1.6H46l-0.1,0.7
		c-0.1,0.3-1.2,1-2.4,1H43l3.2-18.4l2.6,1.1h11.3L61.6,0L63.8,2.1z M57.8,16.6l1.6-9.1c-0.2,0.1-0.4,0.2-0.7,0.1
		c-0.9,1.6-1.8,2.9-2.8,4.1c0.1,0.4,0.3,0.8,0.6,1.2c0.2,0.3,0.3,0.2,0.5,0c0.3-0.4,0.9-1.3,1.3-2l0.2,0.1l-0.8,2.8
		c0.4,1,0.4,1.6,0,2c-1,0.8-2.3,0.1-2.7-0.6c-0.3-0.5-0.6-1-0.8-1.6c-1.5,1.2-3.2,2-5.1,2.6L49,16c1.7-1,3.4-2.3,4.8-3.9
		c-0.3-1.3-0.3-2.8-0.2-4.4c-0.1,0-0.2,0.1-0.3,0.1l-0.5,2.9c0,0.2-1,0.6-1.7,0.6h-0.3l0.1-0.6h-0.8L50,11.1c0,0.1-0.9,0.6-1.7,0.6
		H48l0.9-5.3l1.8,0.8h0.6l1-0.8l1.3,1.1c0-0.5,0.1-1,0.2-1.6h-5L48.4,5h5.1c0.1-0.8,0.2-1.7,0.4-2.6l2.9,0.5
		c-0.1,0.2-0.3,0.5-0.8,0.5C56,4,55.9,4.5,55.8,5h1l0.8-0.8c-0.1-0.6-0.4-1.3-0.6-1.7l0.2-0.1c2.8,0,2.6,1.6,1.6,2.1
		c0.3,0.2,0.5,0.5,0.7,0.7c-0.1,0.2-0.3,0.3-0.6,0.3h-3.2c-0.2,1.2-0.3,2.4-0.3,3.5c0.6-0.9,1.1-2,1.5-3l2.5,1.2l0.9-5.1H48.6
		L46,16.6H57.8z M52.7,11.7c-0.9,0.6-2.2,1.5-4.2,2.7c-0.1,0.3-0.4,0.5-0.6,0.5l-0.8-2.7c1-0.1,3.3-0.4,5.6-0.7V11.7z M51.1,7.5
		h-0.8L49.9,10h0.8L51.1,7.5z"/>
	<path class="st0" d="M72,12.1c-0.1,0.1-0.3,0.3-0.7,0.3L70.5,17c-0.1,0.2-1.3,0.7-2.1,0.7H68l0.2-1.1h-0.9L67,17.9
		c0,0.2-1.2,0.7-2.2,0.7h-0.3l1.4-8.1l2.3,1h0.7l1.2-1.1L72,12.1z M70.7,8c0,0,0.8,0.8,1.3,1.4c-0.1,0.2-0.3,0.3-0.5,0.3h-5.2
		l-0.1-0.6h3.4L70.7,8z M72.1,2.8c0,0,0.9,0.8,1.4,1.5c-0.1,0.2-0.3,0.3-0.6,0.3h-6.3L66.5,4h4.4L72.1,2.8z M82.5,12.3
		c0,0,0.8,1.1,1.2,1.8c-0.1,0.2-0.3,0.3-0.6,0.3h-1.4l-0.3,1.5c-0.3,1.6-0.8,2.5-3.7,2.8c0.1-0.8,0.1-1.4-0.1-1.8s-0.6-0.6-1.5-0.8
		v-0.3c0,0,1.9,0.1,2.3,0.1c0.3,0,0.4-0.1,0.4-0.4l0.2-1.2h-4.6L74,17.9c0,0.3-1.2,0.8-2.3,0.8h-0.4l0.8-4.4h-0.9l-0.1-0.6h1
		l1.1-6.2l2.5,1h1l0.3-1h-5V7.1l0,0h-5.2l-0.1-0.6h3.4l1.1-1.1c0,0,0.8,0.8,1.3,1.4c0,0.1-0.1,0.1-0.1,0.2h2.3L75,5.2h-1.7l-0.1-0.6
		h1.9l0.3-1.9h-2.2l-0.1-0.6h2.3L75.8,0l3,0.3c-0.1,0.2-0.2,0.4-0.6,0.5L78,2.2h1.5l0.4-2.1l3,0.3c-0.1,0.2-0.2,0.4-0.6,0.5
		l-0.2,1.4h0.2l1.3-1.4c0,0,1.1,1,1.7,1.7c-0.1,0.2-0.3,0.3-0.6,0.3H82l-0.3,1.8L83,3.4c0,0,1,0.9,1.6,1.6c-0.1,0.2-0.3,0.3-0.6,0.3
		h-2.4L81.2,7h0.1l1.5-1.6c0,0,1.2,1.1,1.9,1.8c-0.1,0.2-0.3,0.3-0.6,0.3h-2.5l1.9,1.7c-0.2,0.2-0.5,0.3-0.9,0.4L82,13L82.5,12.3z
		 M68.3,16.1l0.7-4h-1l-0.7,4H68.3z M68.3,0.6C74,0.4,71,4.8,68.9,3.3c0-0.9-0.3-1.9-0.8-2.5L68.3,0.6z M74.7,13.8h1.2l0.4-2.1H75
		L74.7,13.8z M75.5,9.2l-0.4,2h1.2l0.4-2H75.5z M77.2,7h1.5L79,5.2h-1.5L77.2,7z M77.6,4.6h1.5l0.3-1.9H78L77.6,4.6z M79.3,13.8
		l0.4-2.1h-1.2l-0.4,2.1C78.1,13.8,79.3,13.8,79.3,13.8z M80.1,9.2h-1.2l-0.4,2h1.2L80.1,9.2z M79,8.6h1l1.2-1.1h-2L79,8.6z"/>
	<path class="st0" d="M91.6,8.6c-0.6,3.3-1.6,7.6-6.1,10.3l-0.1-0.1c2.1-3,2.8-6.8,3.4-10.2l1.1-6.1L93,3.6h4.9l-0.1-0.1
		c0-1.2-0.5-2.5-1.1-3.3l0.1-0.1c4.6,0.1,4.3,2.7,2.9,3.5h3.5l1.7-1.9c0,0,1.3,1.3,2.1,2.1c-0.1,0.2-0.3,0.3-0.6,0.3h-14L91.6,8.6z
		 M102.5,15.5c0,0,1.4,1.3,2.2,2.2c-0.1,0.2-0.4,0.3-0.6,0.3H88.7l-0.1-0.6h6.5l0.6-3.3h-4.6L91,13.5h4.7l1.7-9.4l3.4,0.3
		c-0.1,0.3-0.2,0.4-0.7,0.5l-1.5,8.6h1.4l1.6-1.7c0,0,1.3,1.2,2,2c-0.1,0.2-0.3,0.3-0.6,0.3h-4.5L98,17.5h2.8L102.5,15.5z M96.3,5.7
		c-0.1,0.3-0.4,0.5-0.8,0.5c-0.3,0.7-0.6,1.3-0.9,1.9c3.6,1.7,0.7,4.8-0.7,3.1c0.2-0.7,0.3-1.6,0.2-2.3c-1,1.7-2.1,3.1-3.3,4.1
		l-0.3-0.1c1.1-2.1,2.1-5,2.6-7.8L96.3,5.7z M104.8,5.9c-0.1,0.3-0.4,0.5-0.9,0.5c-0.3,0.7-0.7,1.3-1.1,1.9c4.3,1.6,1.5,5.3-0.1,3.6
		c0.1-1-0.1-2-0.3-3c-1,1.3-2,2.4-3.2,3.3L99,12c1-1.8,2-4.4,2.5-6.9L104.8,5.9z"/>
</g>
<g>
	<path class="st1" d="M177.6,18.7h-53.1c-4.7,0-8.5-3.8-8.5-8.5l0,0c0-4.7,3.8-8.5,8.5-8.5h53.1c4.7,0,8.5,3.8,8.5,8.5l0,0
		C186.1,14.9,182.3,18.7,177.6,18.7z"/>
	<polygon class="st0" points="128.4,10.2 122.7,7 122.7,13.5 	"/>
	<g>
		<path class="st0" d="M132.8,12.4c0.5,1.2,0.5,2.2,0.2,2.7c-0.3,0.4-1,0.3-1.2-0.2c-0.2-0.4,0-0.8,0.4-1.1c0.2-0.3,0.6-0.9,0.5-1.4
			H132.8z M142.9,11.5c-0.1,0.1-0.2,0.2-0.5,0c-0.3,0.2-0.9,0.4-1.5,0.7c0.6,0.7,1.3,1.2,2,1.5v0.1c-0.6,0.2-1,0.7-1.2,1.5
			c-1-1.1-1.5-2.3-1.8-4.5v3.5c0,1-0.2,1.6-1.8,1.7c0-0.4-0.1-0.8-0.2-1c-0.2-0.2-0.4-0.4-0.9-0.4v-0.2c0,0,1,0.1,1.2,0.1
			s0.2-0.1,0.2-0.2V12c-0.6,1.4-1.6,2.6-3.3,3.4l-0.1-0.1c1.2-1,1.8-2.5,2.1-4H136c0,0.6-0.6,1-1.2,0.5c0-0.2,0-0.3-0.1-0.5
			c-0.6,0.3-1.4,0.7-2.2,1c-0.1,0.1-0.2,0.2-0.4,0.3l-0.5-1.6c0,0,0.3-0.1,0.4-0.2c0.5-0.4,1.1-1.2,1.6-2c-0.3,0.2-0.7,0.3-1.1,0.5
			c-0.1,0.2-0.2,0.3-0.3,0.3L131.5,8c0,0,0.3-0.1,0.4-0.2c0.5-0.5,1.2-2.2,1.4-3.1l1.8,0.9c0,0.1-0.2,0.2-0.4,0.2
			c-0.5,0.7-1.4,1.7-2.2,2.3c0.4,0,1,0,1.5,0c0.2-0.4,0.4-0.8,0.5-1.1l1.6,1.1c-0.1,0.1-0.2,0.2-0.4,0.1c-0.6,0.8-1.9,1.9-3,2.7
			c0.5,0,1.2-0.1,1.9-0.1c-0.1-0.4-0.3-0.7-0.4-1l0.1-0.1c0.9,0.3,1.4,0.8,1.5,1.2h1.1l0.7-0.7l0.6,0.5V9.9h-0.6V10
			c0,0.1-0.4,0.3-1.2,0.3h-0.3V5.6l1.6,0.6h0.3c0-0.5,0.1-1.2,0.1-1.6l2.2,0.3c0,0.2-0.2,0.3-0.5,0.3c-0.3,0.3-0.8,0.7-1.2,1h1.5
			l0.7-0.8l1.3,1c-0.1,0.1-0.2,0.2-0.4,0.2v3.3c0,0.1-0.5,0.3-1.2,0.3h-0.3V9.9H140v0.3c0.2,0.7,0.4,1.2,0.8,1.7
			c0.3-0.6,0.5-1.3,0.6-1.6L142.9,11.5z M133.7,12.3c2.3,1.5,0.8,3.3-0.1,2.2c0.2-0.7,0.1-1.6,0-2.2H133.7z M134.8,12.1
			c2.5,0.6,1.3,2.5,0.4,1.7c0-0.6-0.2-1.2-0.5-1.6L134.8,12.1z M137.9,6.7V8h2.6V6.7H137.9z M140.5,9.6V8.3h-2.6v1.3H140.5z"/>
		<path class="st0" d="M152.9,13.8c0,0,1.1,0.8,1.8,1.4c0,0.1-0.2,0.2-0.4,0.2h-10.8l-0.1-0.3h4.3V5l2.3,0.2c0,0.2-0.1,0.3-0.4,0.3
			v4h1.5l1-1.3c0,0,1.1,0.8,1.7,1.4c0,0.1-0.2,0.2-0.3,0.2h-3.9V15h2.3L152.9,13.8z"/>
		<path class="st0" d="M165.1,14.1c0,0,0.9,0.7,1.4,1.2c0,0.1-0.2,0.2-0.3,0.2h-10.7l-0.1-0.3h1.8V7.7l1.8,0.7h0.6
			c0-0.4,0-0.8,0.1-1.3h-4l-0.1-0.3h4.1c0-0.6,0.1-1.3,0.1-1.9l2.4,0.3c0,0.2-0.2,0.3-0.5,0.4c-0.1,0.4-0.2,0.8-0.4,1.3h2.6l0.9-1
			c0,0,1,0.7,1.5,1.2c0,0.1-0.2,0.2-0.3,0.2h-4.7c-0.1,0.5-0.3,0.9-0.4,1.3h1.8l0.7-0.9l1.7,1.2c-0.1,0.1-0.2,0.2-0.5,0.2v5.8
			L165.1,14.1z M158.9,8.6v1.3h3.7V8.6H158.9z M162.6,10.3h-3.7v1.4h3.7V10.3z M158.9,12v1.4h3.7V12H158.9z M158.9,15.1h3.7v-1.4
			h-3.7V15.1z"/>
		<path class="st0" d="M171.5,9.3c-0.4,0.3-0.9,0.7-1.6,1.2v3.6c0,1.1-0.2,1.7-1.8,1.9c0-0.5-0.1-0.9-0.2-1.2
			c-0.1-0.3-0.3-0.4-0.8-0.5v-0.2c0,0,0.8,0,1,0c0.2,0,0.2-0.1,0.2-0.2v-2.4l-0.4,0.4c0,0.2-0.2,0.3-0.3,0.4l-0.5-1.8
			c0.3-0.1,0.7-0.2,1.3-0.3V8.1h-1.3L167,7.6h1.3V4.8l2,0.2c0,0.2-0.1,0.3-0.4,0.3v2.3l0.6-1c0,0,0.7,0.8,1.1,1.2
			c0,0.1-0.2,0.2-0.3,0.2h-1.4v1.7C170.4,9.6,171,9.4,171.5,9.3L171.5,9.3z M175.2,8.7v0.2c3.9,0.2,3.5,2.9,1.9,2.4
			c-0.4-0.7-1.2-1.4-1.9-2v1.5c0,0.1-0.5,0.4-1.3,0.4h-0.3V9.7c-0.6,0.5-1.4,0.9-2.2,1.2l1.5,0.6h2.9l0.7-0.7l1.4,1
			c-0.1,0.1-0.2,0.2-0.4,0.2v3.5c0,0.1-0.8,0.4-1.3,0.4h-0.3v-0.6h-3.1v0.3c0,0.2-0.7,0.5-1.3,0.5h-0.2V11c-0.4,0.1-0.7,0.3-1.1,0.4
			l-0.1-0.1c1.1-0.6,1.9-1.6,2.5-2.5h-1.8l-0.1-0.3h2.9V6.4c-0.8,0-1.7,0-2.4-0.1V6.1c1.7-0.3,4-0.9,5.1-1.3l1.4,1.5
			c-0.2,0.1-0.4,0.1-0.8,0c-0.5,0-1.1,0.1-1.8,0.1v2.1h1.2l0.7-0.9c0,0,0.8,0.6,1.3,1c0,0.1-0.2,0.2-0.3,0.2h-2.8V8.7z M171.4,6.4
			c3.1,0,2,2.3,0.7,1.6C172,7.4,171.7,6.8,171.4,6.4L171.4,6.4z M172.9,11.8v1.4h0.8v-1.4H172.9z M173.7,15v-1.4h-0.8V15H173.7z
			 M175.1,11.8v1.4h0.8v-1.4H175.1z M175.9,15v-1.4h-0.8V15H175.9z M175.4,8.1c0.2-0.4,0.5-1.2,0.7-1.9l1.7,0.8
			c-0.1,0.1-0.2,0.2-0.5,0.2c-0.6,0.4-1.2,0.8-1.8,1L175.4,8.1z"/>
	</g>
</g>
</svg>
