<?xml version="1.0" encoding="utf-8"?>
<!-- Generator: Adobe Illustrator 25.4.1, SVG Export Plug-In . SVG Version: 6.00 Build 0)  -->
<svg version="1.1" id="圖層_1" xmlns="http://www.w3.org/2000/svg" xmlns:xlink="http://www.w3.org/1999/xlink" x="0px" y="0px"
	 viewBox="0 0 471.1 290.2" style="enable-background:new 0 0 471.1 290.2;" xml:space="preserve">
<style type="text/css">
	.st0{filter:url(#Adobe_OpacityMaskFilter);}
	.st1{fill:#FFFFFF;}
	.st2{mask:url(#SVGID_1_);}
	.st3{fill:#B59E84;}
	.st4{fill:#717071;}
	.st5{fill:#82725F;}
</style>
<g>
	<defs>
		<filter id="Adobe_OpacityMaskFilter" filterUnits="userSpaceOnUse" x="0" y="95.2" width="460.7" height="186.7">
			<feColorMatrix  type="matrix" values="1 0 0 0 0  0 1 0 0 0  0 0 1 0 0  0 0 0 1 0"/>
		</filter>
	</defs>
	<mask maskUnits="userSpaceOnUse" x="0" y="95.2" width="460.7" height="186.7" id="SVGID_1_">
		<g class="st0">
			<path class="st1" d="M-166.6,77v218H488V77H-166.6z M-44.9,283.3h-49.7l49.7-49.7V283.3z M86.8,283.3H37.2l49.7-49.7V283.3z
				 M86.8,177.4H37.2l49.7-49.7V177.4z M215,283.3h-49.7l49.7-49.7V283.3z M215,177.4h-49.7l49.7-49.7V177.4z M334.9,283.3h-49.7
				l49.7-49.7V283.3z M334.9,177.4h-49.7l49.7-49.7V177.4z M461.1,283.3h-49.7l49.7-49.7V283.3z M461.1,177.4h-49.7l49.7-49.7V177.4
				z"/>
		</g>
	</mask>
	<g class="st2">
		<path class="st3" d="M0.6,115.2c23.6,0.9,15.3,19,5.7,12.6c-0.9-4.4-3.8-9.2-6.2-12.2L0.6,115.2z M68.6,128.2c0,0,5.6,5.6,8.6,9.1
			c-0.2,0.9-1,1.3-2.2,1.3H48.2c-2.2,15-10.2,27.2-30.2,33.3l-0.5-0.6c12.6-8.4,17.7-19.6,19.2-32.6H21l-0.6-2.2h16.4
			c0.2-2.4,0.3-4.9,0.3-7.4v-15.5h-9.3l-0.6-1.8c-3.5,10.9-8.2,26-9.3,30.2c-0.8,3-1.5,6.2-1.4,8.3c0.2,4.7,3.9,7.2,3.7,14.6
			c-0.2,4.3-3.3,7.3-7.8,7.3c-2.1,0-4.4-1-5.3-4.2c1.7-8.6,1.4-16.6-0.6-18c-1.2-0.8-2.7-1.2-4.5-1.4v-1.4h3.8c1.4,0,1.7,0,2.6-1.7
			c2.2-3.3,2.2-3.3,19.3-38.7l1.1,0.3l-1.4,4.3h9.8V96.3l14.7,1.4c-0.2,1.1-0.8,2-3,2.3v11.2h4.6l5.1-5.4l9.9,7.5
			c-0.5,0.6-1.5,1.3-3.2,1.6v18.6L68.6,128.2z M7.5,96.9c24.7,1.5,15.6,20.2,5.6,13.4c-1-4.7-3.8-9.7-6.2-13L7.5,96.9z M48.6,146.2
			c33.4,7.3,26,31.1,14.4,23.6c-2.6-8.1-9-17.1-15.1-23L48.6,146.2z M48.9,128.9c0,2.6-0.2,5-0.4,7.4h5.8v-23h-5.4V128.9z"/>
		<path class="st3" d="M147.1,107.4c-5.4,6.5-11.7,10.8-18.3,13.7l-0.8-0.6c4.7-5.8,9.4-15.3,11.8-25l14.6,4.6
			c-0.3,1-1.4,1.8-3.3,1.7c-0.7,1.2-1.5,2.3-2.3,3.4h7l4.5-6.2c0,0,5.1,4.2,8.2,7.1c-0.2,0.9-1,1.3-2.2,1.3H147.1z M196.6,142.5
			c0,5.7-1.5,9-11.8,10c5.7,2.9,12.2,4.6,18.7,5.8l-0.1,0.9c-4.5,1.1-7.5,4.8-8.9,10.3c-10.7-5.1-18.2-11.7-22.6-23.9v22.9
			c0,1-5,3.2-9.3,3.2h-2.1v-15.6c-8.2,5.9-19,10.9-30.7,13.3l-0.5-1c13.2-5.7,25.2-17.2,31.2-29.8v-4.1h-12.4v15.5
			c0,1-5.1,3.4-9.7,3.4h-1.5v-25.6l11.9,4.5h11.7v-6.7h-28.6l-0.6-2.2h29.3v-6.6l14.3,1.3c-0.2,1.1-0.7,2-3,2.3v3h14.9l5.6-7.7
			c0,0,6.3,5.2,10,8.6c-0.2,0.9-1.1,1.3-2.2,1.3h-28.2v6.7h12.7l4.7-5.4l10.5,7.7c-0.5,0.6-1.5,1.4-3.2,1.8V142.5z M148.1,109.2
			c18.8,1.4,9.8,15.3,2.4,9.3c-0.1-3.2-1.5-6.7-3-8.9L148.1,109.2z M163.8,116.2c3.2-5,6.2-13,7.6-21l14.2,5c-0.4,1-1.5,1.6-3.3,1.5
			c-0.8,1.2-1.6,2.3-2.5,3.4h9.9l5-6.4c0,0,5.7,4.3,9,7.4c-0.2,0.9-1,1.3-2.2,1.3h-23.6c-3.9,4.2-8.5,7.4-13.4,9.4L163.8,116.2z
			 M171.8,140.8c2.7,4.9,6.9,8.5,11.8,11.2c-0.2-2.6-0.5-4.4-1.4-5.6c-1-1.2-2.1-2.3-5.6-2.9v-1c0,0,5.8,0.3,7.3,0.3
			c1,0,1.4-0.5,1.4-1.4v-6.9h-13.5V140.8z M178.3,109c19.6,0.2,10.7,15.1,2.7,9.1c0-3.2-1.6-6.7-3.4-8.7L178.3,109z"/>
		<path class="st3" d="M321.5,116.9c0,0,6.4,4.9,10.2,8.2c-0.2,0.9-1.1,1.3-2.3,1.3h-25.6c-4.5,3.3-9.4,6.5-14.6,9.4h17.6l5.1-5.6
			l10.4,7.9c-0.5,0.6-1.4,1.4-3.1,1.8v28.9c-0.2,0.6-5.8,2.7-9.7,2.7h-1.9v-6.3h-22.5v3c0,1.1-4.9,3.7-9.7,3.7h-1.7v-28.5
			c-5.6,2.3-11.5,4.4-17.8,6.1l-0.5-1c6.3-2.9,12.4-6.2,18.2-9.9v-7.3l6.9,2.6c3.4-2.4,6.6-4.9,9.6-7.4h-32.6l-0.6-2.2h25.7v-12.7
			h-18.2l-0.6-2.2h18.9V95.9l14.2,1.1c-0.2,1-0.6,1.8-2.6,2.1v10.2h1.5l5.4-7c0,0,4,3,7.5,5.9c3-3.5,5.7-7,7.8-10.4l12.1,8.6
			c-0.6,0.7-1.6,1.1-3.5,0.6c-4.9,5.7-11,11.6-18.4,17.3h9.1L321.5,116.9z M285.1,138.1v11h22.5v-11H285.1z M307.6,163v-11.7h-22.5
			V163H307.6z M294.3,111.5v11.4c4.2-3.8,8.2-7.6,11.6-11.4H294.3z"/>
		<path class="st4" d="M460.6,114.1c-0.6,0.8-1.7,1.4-3.6,1.7c-0.6,33.6-1.5,46.6-6.2,51.4c-3.1,3.1-6.8,4.5-12.8,4.5
			c0-3.8-0.5-6.4-1.9-8c-1.5-1.8-4.5-3.2-8.6-4.1l0.1-1c3.8,0.3,9.3,0.6,11.4,0.6c1.4,0,2.2-0.3,3-1c2.9-2.6,3.6-17.3,4.1-44.5
			h-12.3c-4.2,6.9-9,12.5-14.6,16.9l-0.5-0.3v32.4c-0.1,0.7-5.3,3-9,3h-1.8v-6.3h-9.8v5.5c0,1.2-4.1,3.7-8.7,3.7h-1.7v-61.1
			l10.1,4.2c0.4-4.5,0.7-10.8,1-15.4l15.4,3.7c-0.4,1.4-1.5,2-3.4,2c-2.4,2.8-6,6.8-8.9,9.9h5.3l5-5.5l9.8,7.8
			c-0.6,0.7-1.6,1.4-3.2,1.8v13.4c3.8-8.5,7.6-21.4,9.4-33.1l14.9,4.3c-0.3,1-1.4,1.7-3.2,1.7c-1.4,3.4-2.9,6.5-4.6,9.4h10l6-6.1
			L460.6,114.1z M397.8,114.1V134h9.8v-19.8H397.8z M407.7,157.2v-21h-9.8v21H407.7z M424.2,127.8c25.3,5.8,14.5,25.4,4.6,16.9
			c-0.2-5.8-2.5-12-5.3-16.5L424.2,127.8z"/>
		<path class="st5" d="M75.7,212.8c-0.6,0.6-1.6,1.3-3.2,1.7V270c0,6.8-1.5,10.6-13,11.7c-0.3-3.3-0.8-5.7-2.2-7.1
			c-1.4-1.6-3.1-2.7-7.4-3.4V270c0,0,8.9,0.6,10.7,0.6c1.4,0,1.8-0.6,1.8-1.7v-15.4c-0.2,0.7-0.8,1.3-2.2,1.5v10.8
			c0,0.6-3.2,1.7-5.8,1.7H53v-3.2h-4.9v11c0,0.6-3.4,1.9-6.5,1.9h-1.4V252h0.2l-2.6-5.6c0,0,1.2-0.2,1.8-0.5c2.2-1,4.6-2.7,7-4.7
			c-1.8,0.6-3.9,1.1-5.8,1.7c-0.5,0.8-1,1.4-1.6,1.6l-2.5-5.4c-0.5,0-1,0-1.8-0.2c-1.1,1-2.5,2-3.9,3.1l0.1-0.1
			c11.7,5,5.9,13.2,1.7,9.2c-0.1-0.8-0.2-1.6-0.3-2.5c-3,1.1-7.9,2.7-12.7,4.2l7.6,0.8c-0.2,1-0.8,1.7-2.6,2v6.3h4.5
			c0.1-0.7,0.1-1.4,0.1-2.2v-7.8l10.2,1c-0.2,1-0.7,1.8-2.6,2v5c-0.2,6.7-3.2,14.5-18.6,18.6l-0.7-0.9c7.6-3.6,10.5-8.6,11.4-13.4
			h-3.5L23,268l-8.2-4.6c0.6-0.7,1.8-1.6,3-2.2v-7.3l-2.8-6.2c0,0,1.2-0.2,1.8-0.6c2.3-1.1,4.9-3.4,7.3-5.8c-1.8,0.5-3.6,1-5.4,1.5
			c-0.4,0.8-1,1.2-1.5,1.4l-2.9-6.2c0,0,1-0.2,1.6-0.5c3.3-1.6,7.2-7.2,8.6-9.8l1.8,1v-1H13.4v50c0,1.3-3.8,3.8-8.3,3.8H3.4v-75.4
			l10.3,4.4h11.8l4.2-4.5l8.8,6.6c-0.4,0.6-1.4,1.2-2.9,1.5v14.2c-0.1,0.5-3.6,1.8-6.5,2.1l3.4,1.9c-0.2,0.4-0.6,0.8-1.4,1l6.5,4.6
			c0.2,0,0.3-0.1,0.4-0.2c2.2-1.1,4.7-4.3,6.4-7c-1,0.2-1.9,0.3-2.9,0.3h-1.4v-24.4l10.1,3.9h11.3l4.6-5.3L75.7,212.8z M13.4,212.8
			v5.4h12.9v-5.4H13.4z M26.2,225.5v-5H13.4v5H26.2z M27,238c1.5-1.8,2.7-3.4,3.6-4.7c-0.3,0-0.7-0.1-1.1-0.2
			c-2.2,1.7-5.1,3.4-8.1,5C23.1,238.1,25,238.1,27,238z M30.4,242.5c-2.6,1.8-5.4,3.5-8.3,5c3-0.2,6.5-0.3,10.1-0.6
			C31.7,245.4,31,243.7,30.4,242.5z M62.4,253.2v-25.6H50v0.4c0,0.3-0.6,0.8-1.5,1.3l5.6,3.1c-0.3,0.7-1.3,1.3-3,1
			c-2,1.5-4.7,3.4-7.5,4.8c2,0,4.2,0,6.5-0.1c2-2,3.7-3.9,4.7-5.4l7.4,5.4c-0.4,0.6-1.5,1.1-3.1,0.6c-3.3,2.5-8.6,5.5-13.7,7.8
			c3-0.2,6.6-0.3,10.3-0.6c-0.4-1.4-0.9-2.6-1.3-3.6l1-0.4c11.3,5.4,5.2,13.4,1,9.3c0-1.1-0.1-2.2-0.3-3.4
			c-3.4,1.1-8.5,2.9-13.5,4.3l8.6,0.8c-0.2,1.1-0.9,1.9-3,2.2v6.9H53v-9.8L62.4,253.2z M50,212.8v5.4h12.4v-5.4H50z M50,220.4v5
			h12.4v-5H50z"/>
		<path class="st5" d="M171.8,247.6c-1.2,5.6-3,10.9-5.7,15.7c4.3,5.4,10.4,6.7,19.1,6.7c4.3,0,15,0,19.8-0.1v0.9
			c-3.2,0.8-4.8,4.8-4.8,9.4h-15.5c-10.6,0-17.8-2.6-21.9-12c-4.2,5.3-10.1,9.8-18.3,13.1l-0.6-1c8.2-5.1,13.3-12,16.4-20.1
			c-0.9-4.2-1.5-9.3-1.8-15.4l0.7-0.2c0.8,4.2,1.7,7.8,2.8,10.8c1.4-5.2,2.3-10.7,2.8-16.5h-0.9l-3.3,3.5l-4.1-2.8
			c0.4,0.5,0.8,1,1.2,1.4c-0.2,0.9-1,1.3-2.2,1.3h-8.8v22.9c3.5-0.6,7.3-1.4,11-2.2l0.2,0.9c-5,3.2-12.8,7.8-23.8,13.6
			c-0.4,1-1.3,1.9-2.2,2.2l-3.8-11.1c2.1-0.2,5.4-0.9,9.6-1.6v-8.2c-1.1,3.6-4.8,5-7.7,1.5c0.8-5,0.2-11-0.8-15.4l1-0.2
			c4.5,3.2,6.6,6.6,7.4,9.5v-11.8h-8.5l-0.6-2.2h9.1v-11h-3.5c-1.8,1.8-3.8,3.4-5.8,4.9l-0.7-0.5c4.4-7.5,8.1-20.1,9.2-27.7l14,2.3
			c-0.2,1-1,1.7-3.1,1.9l-0.2,0.4c4.5,1,7.4,2.2,9.2,3.8h5.8l3.3-3.7l7.1,5.7l-0.3-1h4.7v-9l11.5,1.1c-0.2,1-0.7,1.8-2.6,2.1v5.8h2
			l3.8-4l7.9,5.9c-0.4,0.5-1.3,1-2.6,1.4v7.3h0.3l2.6-4.7c0,0,3.1,3.4,4.6,5.7c-0.2,0.9-0.9,1.3-1.9,1.3h-5.6v10.6
			c-0.1,0.6-4.3,2.2-7,2.2h-1.4v-2h-2.7v8.4h3.6l4.1-5.9c0,0,4.7,4.1,7.4,6.9c-0.2,0.9-1,1.3-2.1,1.3h-13v7.9h4.7l4.3-6.3
			c0,0,5,4.4,7.8,7.3c-0.2,0.9-1,1.3-2.2,1.3h-14.6v6.4c0,1-3.8,3-7.2,3h-1.7v-9.4h-6.9l-0.6-2.2h7.5v-7.9h-5L171.8,247.6z
			 M150.4,233.5c0,0,1.4,1.4,3.1,3c0.7-0.5,1.7-0.9,2.6-1.3c2.2-5.3,5.1-13.7,6.6-19h-4.1c2.4,4.8-4.5,9.5-9,5.1
			c-0.4-2.4-1.5-5.8-3.3-8.8c-2.4,4.6-6,9.7-10.2,14.1h6.8l4.3-5.6c0,0,5,3.8,7.9,6.6c-0.2,0.9-1,1.3-2.2,1.3h-6.4v10.3L150.4,233.5
			z M146.9,261.2c0.8-4.6,1.4-11.2,1.5-17l10,3.6c-0.4,1-1.4,1.6-3.1,1.5c-1.8,4.4-4,9.1-7.1,12.5L146.9,261.2z M173.1,216.7
			c-0.6,0.4-1.3,0.7-2.2,1c-1.6,4.7-4.6,13.1-6.8,18.8l4.2-4.3l6.1,5.3l-0.3-1h3.2v-8.6h-7.7l-0.6-2.2h8.2v-8.3h-4L173.1,216.7z
			 M177.3,238.7h-1.4l0.2,0.2c-0.6,0.8-1.3,1-3,1.3c-0.3,2.4-0.7,4.7-1.2,7h5.4V238.7z M186.2,217.3v8.3h2.7v-8.3H186.2z
			 M188.9,227.9h-2.7v8.6h2.7V227.9z"/>
		<path class="st5" d="M276.8,270c0,7.2-1.5,11-12.9,12c-0.2-3.4-0.6-5.8-1.7-7.4c-1.1-1.6-2.6-2.7-6.2-3.4v-1c0,0,6.9,0.5,8.5,0.5
			c1.1,0,1.5-0.4,1.5-1.3v-17.6c-1.4,0.9-2.8,1.8-4.2,2.6c-0.4,1-1.3,2-2.3,2.3l-3.8-12.6c2.2-0.4,5.8-1.3,10.4-2.3v-14.4h-9
			l-0.6-2.2h9.6v-19.2l13.8,1.3c-0.2,1.2-1,2-3,2.3v13.8l3.1-5.2c0,0,5,4.9,7.5,8c-0.2,0.9-1,1.3-2.2,1.3h-8.5v11.8
			c3.3-0.9,6.6-1.8,9.9-2.6l0.2,0.7c-2.6,2-5.8,4.5-10.1,7.4V270z M325.1,239.1c0,0,5.1,5,7.8,8.2c-0.2,0.9-1,1.3-2.1,1.3h-25.5
			c-2.2,14.6-9.7,26.9-28.2,33.3l-0.6-0.7c11.7-8.5,16.4-19.7,17.8-32.6h-13.6l-0.6-2.2h14.4c0.2-2.6,0.3-5.1,0.3-7.8v-15.2h-8.6
			l-0.7-2.2h9.3v-15.3l14.1,1.4c-0.2,1.1-0.8,1.9-2.9,2.2v11.7h4l5.1-5.4l9.9,7.5c-0.5,0.6-1.5,1.3-3.2,1.6v19.5L325.1,239.1z
			 M306,238.7c0,2.6-0.2,5.2-0.4,7.7h5.2v-23H306V238.7z M308.2,253.6c29,11.9,19.8,35,8.8,25.8c-1-8.6-5.2-18.1-9.6-25.4
			L308.2,253.6z"/>
		<path class="st5" d="M412.2,238.9c-2.2,1.8-5.2,4.2-8.9,7v23c0,7.4-1.4,11.6-12.1,12.6c-0.2-3.6-0.5-6.3-1.4-8.1
			c-0.9-1.8-2.2-2.9-5.3-3.6v-1c0,0,5.5,0.3,7,0.3c1,0,1.4-0.4,1.4-1.2v-14.6c-1.1,0.7-2.3,1.5-3.5,2.3c-0.3,1.1-1.2,2.1-2.2,2.4
			l-3.6-12.3c1.9-0.4,5.3-1.2,9.4-2.2v-16.1h-8.2l-0.6-2.2h8.9v-19.2l13.3,1.3c-0.2,1.2-1,1.9-2.9,2.2v15.7l3.8-6.7
			c0,0,1.5,1.6,3.3,3.6v-14.6l9.1,3.6h27.8l4.1-4.4l8.6,6.5c-0.5,0.6-1.7,1.4-3.3,1.7v10.6c-0.1,0.6-4.2,2.5-7.2,2.5h-1.4v-1.4
			h-29.1v1.4c0,0.8-3.9,2.6-7.4,2.6h-1.2v-3.1h-7.1v13.3c2.9-0.8,5.8-1.6,8.7-2.5L412.2,238.9z M453.2,258.5c0,0,4.7,3.9,7.5,6.6
			c-0.2,0.9-1,1.3-2.1,1.3h-20.8v12.5c0,0.6-2.8,2.5-7.5,2.5h-1.7v-15h-19.9l-0.6-2.2h20.6v-7.3h-15.1l-0.6-2.2h9.9l-0.1-0.1
			c-0.1-3.2-1.3-6.8-2.5-9.4h-9.4l-0.6-2.2h18.5v-6.6h-14l-0.6-2.2h14.6V227l12,1c-0.1,1-0.6,1.8-2.6,2.1v4.2h6.4l4-5.8
			c0,0,4.6,4.1,7.1,6.8c-0.2,0.9-1,1.3-2.1,1.3h-15.4v6.6h9.3l4.6-6.2c0,0,5.1,4.2,8.2,7.2c-0.2,0.9-1,1.3-2.2,1.3h-15.4l7.2,3.4
			c-0.3,0.7-1.3,1.4-3,1.1c-1.8,1.3-4.9,3.3-7.9,5h7.5l4.2-5.7c0,0,4.7,3.9,7.5,6.6c-0.2,0.9-1,1.3-2.2,1.3h-18.1v7.3H449
			L453.2,258.5z M419.1,213.2v11h4.2v-11H419.1z M424.2,245.2c7,2.7,7.4,7.2,5.4,9.4h6.3c1.1-2.9,2.2-6.7,3-9.4H424.2z M436.1,224.2
			v-11h-4.8v11H436.1z M444,213.2v11h4.2v-11H444z"/>
	</g>
	
		<rect x="27.7" y="156.1" transform="matrix(0.7071 -0.7071 0.7071 0.7071 -91.2628 92.8654)" class="st3" width="77.5" height="1"/>
	
		<rect x="155.9" y="262" transform="matrix(0.7071 -0.7071 0.7071 0.7071 -128.6104 214.5089)" class="st5" width="77.5" height="1"/>
	
		<rect x="27.7" y="262" transform="matrix(0.7071 -0.7071 0.7071 0.7071 -166.1485 123.8841)" class="st5" width="77.5" height="1"/>
	
		<rect x="275.8" y="262" transform="matrix(0.7071 -0.7071 0.7071 0.7071 -93.5006 299.2716)" class="st5" width="77.5" height="1"/>
	<rect x="402" y="262" transform="matrix(0.7071 -0.7071 0.7071 0.7071 -56.5159 388.5604)" class="st5" width="77.5" height="1"/>
	
		<rect x="155.9" y="156.1" transform="matrix(0.7071 -0.7071 0.7071 0.7071 -53.7248 183.4902)" class="st3" width="77.5" height="1"/>
	
		<rect x="249" y="91.8" transform="matrix(0.7071 -0.7071 0.7071 0.7071 45.9012 294.9764)" class="st1" width="259.9" height="0.5"/>
	<rect x="402" y="156.1" transform="matrix(0.7071 -0.7071 0.7071 0.7071 18.3697 357.5417)" class="st4" width="77.5" height="1"/>
</g>
</svg>
