<svg id="圖層_1" data-name="圖層 1" xmlns="http://www.w3.org/2000/svg" viewBox="0 0 98.54 98.54"><defs><style>.cls-1{fill:#afafaf;}.cls-2,.cls-3{fill:#fff;}.cls-3{stroke:#000;stroke-linecap:round;stroke-linejoin:round;}.cls-4{fill:#ea5902;}</style></defs><circle class="cls-1" cx="47.68" cy="47.65" r="38.34"/><circle class="cls-2" cx="47.68" cy="47.65" r="32.02"/><polygon class="cls-3" points="25.83 40.88 48.15 51.49 70.73 40.88 70.73 65.55 25.83 65.55 25.83 40.88"/><polygon class="cls-3" points="30.81 65.55 48.28 40.04 65.75 65.55 30.81 65.55"/><polygon class="cls-3" points="25.83 40.88 48.28 31.77 70.73 40.88 48.15 51.49 25.83 40.88"/><polygon class="cls-4" points="32.56 43.74 32.56 23.86 64 23.86 64 43.74 48.15 51.12 32.56 43.74"/><rect class="cls-2" x="36.6" y="26.52" width="23.96" height="5.71"/><rect class="cls-2" x="36.6" y="34.59" width="23.96" height="1.19"/><rect class="cls-2" x="36.6" y="37.31" width="23.96" height="1.19"/><rect class="cls-2" x="36.6" y="40.04" width="23.96" height="1.19"/><rect class="cls-2" x="40.71" y="42.76" width="15.73" height="1.19"/></svg>