<svg id="圖層_1" data-name="圖層 1" xmlns="http://www.w3.org/2000/svg" viewBox="0 0 99.78 99.78"><defs><style>.cls-1{fill:#afafaf;}.cls-2{fill:#fff;}.cls-3{fill:#ea5902;}</style></defs><circle class="cls-1" cx="47.88" cy="47.65" r="38.34"/><circle class="cls-2" cx="47.88" cy="47.65" r="32.02"/><path class="cls-3" d="M37.09,71.1a.69.69,0,0,1-.54-.26,2.91,2.91,0,0,0-4.09-.52l-.1.1a.74.74,0,0,1-.52.16.72.72,0,0,1-.47-.26l-3-3.85a.68.68,0,0,1,.12-1l1-.78a1.81,1.81,0,0,0-2.22-2.87l-1,.78a.7.7,0,0,1-1-.12l-3-3.84a.68.68,0,0,1,.15-1l.12-.07a2.92,2.92,0,0,0,.52-4.09.69.69,0,0,1,.13-1L59.75,24.33a.7.7,0,0,1,.51-.14.69.69,0,0,1,.45.27A2.93,2.93,0,0,0,64.8,25a.66.66,0,0,1,.51-.14.64.64,0,0,1,.45.26l3,3.83a.69.69,0,0,1-.13,1l-.86.68h0a1.75,1.75,0,0,0-.69,1.2,1.83,1.83,0,0,0,.36,1.34,1.81,1.81,0,0,0,2.54.32l.87-.67a.72.72,0,0,1,.51-.14.7.7,0,0,1,.46.26l3,3.83a.72.72,0,0,1,.14.51.7.7,0,0,1-.26.46,2.9,2.9,0,0,0-.52,4.08.72.72,0,0,1,.14.51.77.77,0,0,1-.26.46L37.51,71A.65.65,0,0,1,37.09,71.1Z"/><path class="cls-2" d="M34.24,68.33a4.31,4.31,0,0,1,2.93,1.15L72.64,42a4.31,4.31,0,0,1,.64-5l-2.16-2.78-.32.25a3.19,3.19,0,1,1-3.91-5l.33-.25-2.16-2.79a4.27,4.27,0,0,1-5-.63L24.62,53.27a4.31,4.31,0,0,1-.76,5.1L26,61.13l.47-.36a3.19,3.19,0,0,1,3.9,5l-.47.36L32,68.94A4.25,4.25,0,0,1,34.24,68.33Z"/><path class="cls-2" d="M74.21,45.2h1.1V40.36a3.6,3.6,0,0,1-3.6-3.6H25.59a3.6,3.6,0,0,1-3.6,3.6l-.18,0V45.2h1.28a2.5,2.5,0,1,1,0,5H21.81v4.86L22,55a3.6,3.6,0,0,1,3.6,3.6H71.71a3.6,3.6,0,0,1,3.6-3.6V50.2h-1.1a2.5,2.5,0,0,1,0-5Z"/><path class="cls-3" d="M58.8,59.33H25.59a.69.69,0,0,1-.69-.69A2.92,2.92,0,0,0,22,55.73l-.15,0a.67.67,0,0,1-.5-.19.68.68,0,0,1-.22-.5V50.2a.69.69,0,0,1,.69-.69h1.28a1.81,1.81,0,0,0,0-3.62H21.81a.69.69,0,0,1-.69-.69V40.34a.68.68,0,0,1,.22-.5.67.67,0,0,1,.5-.19l.15,0h0a2.91,2.91,0,0,0,2.91-2.91.69.69,0,0,1,.69-.69H36.51a.69.69,0,0,1,0,1.38H26.22A4.3,4.3,0,0,1,22.5,41v3.49h.59a3.19,3.19,0,1,1,0,6.38H22.5v3.49A4.3,4.3,0,0,1,26.22,58H58.8a.69.69,0,0,1,0,1.38Z"/><path class="cls-3" d="M71.71,59.33H65A.69.69,0,0,1,65,58h6.11a4.29,4.29,0,0,1,3.54-3.54V50.89h-.41a3.19,3.19,0,0,1,0-6.38h.41V41a4.29,4.29,0,0,1-3.54-3.54H41.35a.69.69,0,1,1,0-1.38H71.71a.69.69,0,0,1,.69.69,2.92,2.92,0,0,0,2.91,2.91.69.69,0,0,1,.69.69V45.2a.69.69,0,0,1-.69.69h-1.1a1.81,1.81,0,1,0,0,3.62h1.1a.69.69,0,0,1,.69.69V55a.69.69,0,0,1-.69.69,2.92,2.92,0,0,0-2.91,2.91A.69.69,0,0,1,71.71,59.33Z"/><path class="cls-3" d="M67.05,55.25H30.61a.69.69,0,0,1-.69-.69V40.73a.69.69,0,0,1,.69-.69h8a.69.69,0,0,1,0,1.38H31.29V53.87H66.37V41.42H44A.69.69,0,0,1,44,40H67.05a.69.69,0,0,1,.69.69V54.56A.69.69,0,0,1,67.05,55.25Z"/><path class="cls-3" d="M35.2,45.77H33.3V44.55h5.34v1.22H36.7v5.12H35.2Z"/><path class="cls-3" d="M40.94,44.55v6.34h-1.5V44.55Z"/><path class="cls-3" d="M47.43,50.69a4.72,4.72,0,0,1-1.84.31C43.2,51,42,49.62,42,47.81c0-2.09,1.62-3.37,3.76-3.37a4.21,4.21,0,0,1,1.8.32l-.32,1.16a3.68,3.68,0,0,0-1.42-.27,2.07,2.07,0,1,0,0,4.13,3.77,3.77,0,0,0,1.4-.25Z"/><path class="cls-3" d="M48.47,44.55H50v2.78h0c.15-.23.32-.44.48-.64l1.63-2.14H54l-2.33,2.68,2.47,3.66H52.35l-1.77-2.77-.62.71v2.06H48.47Z"/><path class="cls-3" d="M58.87,48.24H56.24v1.44h2.93v1.21H54.74V44.55H59v1.21H56.24V47h2.63Z"/><path class="cls-3" d="M61.66,45.77H59.75V44.55H65.1v1.22H63.16v5.12h-1.5Z"/></svg>