<svg id="圖層_1" data-name="圖層 1" xmlns="http://www.w3.org/2000/svg" viewBox="0 0 98.73 98.73"><defs><style>.cls-1{fill:#afafaf;}.cls-2{fill:#fff;}.cls-3{fill:#ea5902;}</style></defs><circle class="cls-1" cx="50" cy="47.65" r="38.34"/><circle class="cls-2" cx="50" cy="47.65" r="32.02"/><path class="cls-3" d="M33.3,69.58a8.74,8.74,0,0,1-6-15.13L40.45,42.18a8.75,8.75,0,0,1,6.27-2.35,1.09,1.09,0,0,1,0,2.18h0a6.49,6.49,0,0,0-4.7,1.77L28.82,56.05a6.56,6.56,0,1,0,9,9.58L50.9,53.36a6.56,6.56,0,0,0,.32-9.27,1.09,1.09,0,1,1,1.59-1.49A8.75,8.75,0,0,1,52.39,55L39.27,67.22A8.69,8.69,0,0,1,33.3,69.58Z"/><path class="cls-3" d="M54.46,56.53h-.3a1.08,1.08,0,0,1-1-1.13,1.07,1.07,0,0,1,1.12-1,6.5,6.5,0,0,0,4.7-1.77L72.06,40.32a6.57,6.57,0,1,0-9-9.59L50,43a6.57,6.57,0,0,0-.31,9.27,1.09,1.09,0,0,1-1.59,1.49,8.74,8.74,0,0,1,.41-12.35L61.61,29.14A8.74,8.74,0,0,1,73.55,41.91L60.42,54.18A8.7,8.7,0,0,1,54.46,56.53Z"/></svg>