<svg id="圖層_1" data-name="圖層 1" xmlns="http://www.w3.org/2000/svg" viewBox="0 0 100 100"><defs><style>.cls-1{fill:#afafaf;}.cls-2{fill:#fff;}.cls-3{fill:#ea5902;}</style></defs><circle class="cls-1" cx="50" cy="49.88" r="38.34"/><circle class="cls-2" cx="50" cy="49.88" r="32.02"/><circle class="cls-3" cx="50" cy="45.29" r="3.01"/><path class="cls-3" d="M66.2,56.39a1.3,1.3,0,0,1-.65-.18,1.25,1.25,0,0,1-.42-1.72,17.59,17.59,0,0,0-.21-18.74A1.25,1.25,0,1,1,67,34.4a20.12,20.12,0,0,1,.24,21.39A1.27,1.27,0,0,1,66.2,56.39Z"/><path class="cls-3" d="M34,56.76A1.27,1.27,0,0,1,33,56.18a20.1,20.1,0,0,1-.24-21.38,1.25,1.25,0,0,1,2.14,1.3,17.57,17.57,0,0,0,.21,18.73,1.26,1.26,0,0,1-.38,1.73A1.27,1.27,0,0,1,34,56.76Z"/><path class="cls-3" d="M37.72,54.4a1.26,1.26,0,0,1-1.06-.58,15.75,15.75,0,0,1-.2-16.76,1.25,1.25,0,1,1,2.14,1.3,13.26,13.26,0,0,0,.17,14.12,1.25,1.25,0,0,1-.38,1.72A1.27,1.27,0,0,1,37.72,54.4Z"/><path class="cls-3" d="M62.47,54.12a1.3,1.3,0,0,1-.65-.18,1.26,1.26,0,0,1-.42-1.72,13.24,13.24,0,0,0-.17-14.11,1.25,1.25,0,1,1,2.11-1.35,15.75,15.75,0,0,1,.2,16.76A1.25,1.25,0,0,1,62.47,54.12Z"/><path class="cls-3" d="M58.82,51.9a1.28,1.28,0,0,1-.65-.18A1.25,1.25,0,0,1,57.75,50a9,9,0,0,0-.12-9.59,1.25,1.25,0,0,1,2.11-1.35,11.51,11.51,0,0,1,.15,12.24A1.25,1.25,0,0,1,58.82,51.9Z"/><path class="cls-3" d="M41.31,52.1a1.26,1.26,0,0,1-1.05-.58,11.51,11.51,0,0,1-.15-12.24,1.25,1.25,0,1,1,2.14,1.3,9,9,0,0,0,.12,9.59A1.26,1.26,0,0,1,42,51.9,1.28,1.28,0,0,1,41.31,52.1Z"/><path class="cls-3" d="M37.54,57.66h1.79v6.8h4.12l-.21,1.47h-5.7Z"/><path class="cls-3" d="M46.3,57.66v8.27H44.51V57.66Z"/><path class="cls-3" d="M50.26,65.93l-2.92-8.27h1.92l1.23,3.82c.37,1.16.66,2.14.85,3h0c.17-.77.5-1.78.89-2.95l1.29-3.85h1.82l-3,8.27Z"/><path class="cls-3" d="M62.06,62.36h-4v2.1h4.36l-.22,1.47H56.37V57.66h5.86v1.47H58.11V60.9h4Z"/></svg>