<svg id="圖層_1" data-name="圖層 1" xmlns="http://www.w3.org/2000/svg" viewBox="0 0 100 100"><defs><style>.cls-1{fill:#afafaf;}.cls-2,.cls-3,.cls-4{fill:#fff;}.cls-3,.cls-4{stroke:#000;}.cls-3{stroke-miterlimit:10;}.cls-4{stroke-linecap:round;stroke-linejoin:round;}.cls-5{fill:#ea5902;}</style></defs><circle class="cls-1" cx="47.88" cy="49.88" r="38.34"/><circle class="cls-2" cx="47.88" cy="49.88" r="32.02"/><path class="cls-3" d="M30,35.26H64.4a2.29,2.29,0,0,1,2.29,2.29v23.2a0,0,0,0,1,0,0h-39a0,0,0,0,1,0,0V37.55A2.29,2.29,0,0,1,30,35.26Z"/><path class="cls-4" d="M22.11,60.75H72.28a0,0,0,0,1,0,0v.39a4,4,0,0,1-4,4H26.16a4,4,0,0,1-4-4v-.39A0,0,0,0,1,22.11,60.75Z"/><rect class="cls-5" x="29.31" y="36.9" width="35.65" height="22.12"/><path class="cls-4" d="M69.2,32.71H56a1.85,1.85,0,0,0-1.85,1.85v11.1A1.85,1.85,0,0,0,56,47.51H58.4l-.62,3.26,2.84-3.26H69.2a1.85,1.85,0,0,0,1.85-1.85V34.56A1.85,1.85,0,0,0,69.2,32.71Z"/><polygon class="cls-5" points="59.66 36.31 59.66 43.4 65.58 39.85 59.66 36.31"/><path class="cls-3" d="M36.38,55.82h7a4.85,4.85,0,0,1,4.85,4.85v.08a0,0,0,0,1,0,0H31.53a0,0,0,0,1,0,0v-.08A4.85,4.85,0,0,1,36.38,55.82Z"/><path class="cls-3" d="M38,53.72h3.78a0,0,0,0,1,0,0V55.2a1.89,1.89,0,0,1-1.89,1.89h0A1.89,1.89,0,0,1,38,55.2V53.72a0,0,0,0,1,0,0Z"/><ellipse class="cls-3" cx="39.9" cy="49.01" rx="5.43" ry="5.61"/><path class="cls-3" d="M34.47,50.14A3.94,3.94,0,0,1,32.68,47c-.17-2.22.1-4.11.89-5A4.28,4.28,0,0,1,37,40.23c2-.16,9.95-.53,10.56.21s0,3.41-.65,4-1.72,1.49-2.49,1.46-6.19-1.09-7.05-.56S35.39,50.18,34.47,50.14Z"/></svg>