<svg id="圖層_1" data-name="圖層 1" xmlns="http://www.w3.org/2000/svg" viewBox="0 0 100 100"><defs><style>.cls-1{fill:#afafaf;}.cls-2,.cls-3{fill:#fff;}.cls-3,.cls-4{stroke:#000;stroke-linecap:round;stroke-linejoin:round;}.cls-4{fill:none;}.cls-5{fill:#ea5902;}</style></defs><circle class="cls-1" cx="47.99" cy="49.88" r="38.34"/><circle class="cls-2" cx="47.99" cy="49.88" r="32.02"/><path class="cls-3" d="M63.2,42.39A4,4,0,0,0,60.7,44a.76.76,0,0,1-1.1.13L59.54,44l-.24-.46L59,43c-.07-.11-.14-.21-.2-.32s-.28-.43-.44-.64l-.13-.18c-.18-.24-.37-.48-.57-.71l-.09-.1-.24-.27a.75.75,0,0,1,.54-.94,4,4,0,1,0-4.25-6.17A4,4,0,0,0,53,36.58a.76.76,0,0,1-.69.87l-.14,0-.5-.16q-.3-.11-.6-.18L50.7,37q-.37-.09-.75-.15l-.23,0c-.3-.05-.59-.08-.89-.1h-.15l-.35,0a.74.74,0,0,1-.29-1,4.06,4.06,0,0,0,.27-3.8,4,4,0,0,0-3.6-2.38,4,4,0,0,0-4,4.82,4,4,0,0,0,1.62,2.49.77.77,0,0,1,.13,1.11l-.13.06-.47.24-.54.3-.32.2-.64.43-.18.14-.71.56a.52.52,0,0,1-.11.1l-.26.24a.75.75,0,0,1-.94-.54A4,4,0,1,0,32,43.86a4,4,0,0,0,2.91.62.76.76,0,0,1,.87.69s0,.09,0,.14-.1.33-.16.5-.12.39-.17.6-.06.24-.08.36-.11.51-.15.76a1.81,1.81,0,0,0,0,.23,8.65,8.65,0,0,0-.1.89.76.76,0,0,0,0,.15c0,.12,0,.23,0,.35a.75.75,0,0,1-1.05.29,4,4,0,1,0,1.14,5.75.76.76,0,0,1,1.1-.13s.05.08.07.13l.24.47.3.54.2.32c.14.22.28.43.43.64l.14.18c.18.24.36.48.56.71l.1.1.24.27a.75.75,0,0,1-.54.94,4,4,0,1,0,4.87,3.26.76.76,0,0,1,.69-.87l.14,0,.5.16c.2.07.39.13.59.18l.37.08c.25.06.51.11.76.15l.23,0a8.65,8.65,0,0,0,.89.1h.15l.35,0a.74.74,0,0,1,.29,1,4,4,0,0,0-.27,3.8,4,4,0,0,0,7.63-2.44,3.94,3.94,0,0,0-1.61-2.49.76.76,0,0,1-.13-1.11l.13-.06.46-.24.55-.3.32-.2.64-.43.18-.14.71-.56.1-.1.26-.24a.75.75,0,0,1,1,.54,4,4,0,1,0,6.17-4.25,4,4,0,0,0-2.91-.62A.76.76,0,0,1,60,54s0-.09,0-.14.11-.33.16-.5.12-.39.18-.6.05-.24.08-.36.11-.51.15-.76l0-.23c0-.29.08-.59.1-.89,0,0,0-.1,0-.15s0-.23,0-.35a.74.74,0,0,1,1-.29,4,4,0,1,0,1.36-7.37Z"/><path class="cls-4" d="M39.9,47.85s2.6.72,1.92,4.25"/><path class="cls-4" d="M51.13,42.76s-.25,3.92,4.35,4.06"/><path class="cls-4" d="M49.52,56.7s-2.1-4.07-5.38-.43"/><path class="cls-5" d="M47.88,17.75A32.13,32.13,0,1,0,80,49.88,32.16,32.16,0,0,0,47.88,17.75ZM77,49.88A29,29,0,0,1,69.82,69L28.75,27.94A29.11,29.11,0,0,1,77,49.88Zm-58.26,0A29,29,0,0,1,26.59,30L67.73,71.17a29.11,29.11,0,0,1-49-21.29Z"/></svg>