<svg id="圖層_1" data-name="圖層 1" xmlns="http://www.w3.org/2000/svg" viewBox="0 0 98.73 98.73"><defs><style>.cls-1{fill:#afafaf;}.cls-2{fill:#fff;}.cls-3{fill:#ea5902;}</style></defs><circle class="cls-1" cx="51.18" cy="47.65" r="38.34"/><circle class="cls-2" cx="51.18" cy="47.65" r="32.02"/><path class="cls-2" d="M33.72,28.13h34A2.29,2.29,0,0,1,70,30.42V53.35a0,0,0,0,1,0,0H31.43a0,0,0,0,1,0,0V30.42A2.29,2.29,0,0,1,33.72,28.13Z"/><path d="M70.24,53.59h-39V29.22a1.33,1.33,0,0,1,1.33-1.33H68.91a1.33,1.33,0,0,1,1.33,1.33Zm-38.57-.47H69.76V29.22a.86.86,0,0,0-.85-.86H32.52a.86.86,0,0,0-.85.86Z"/><path class="cls-2" d="M25.89,53.35H75.53a0,0,0,0,1,0,0v.35a4,4,0,0,1-4,4H29.94a4,4,0,0,1-4-4v-.35a0,0,0,0,1,0,0Z"/><path d="M73.61,58H27.82a2.16,2.16,0,0,1-2.16-2.16V53.35a.23.23,0,0,1,.23-.23H75.53a.23.23,0,0,1,.24.23v2.47A2.16,2.16,0,0,1,73.61,58ZM26.13,53.59v2.23a1.69,1.69,0,0,0,1.69,1.69H73.61a1.69,1.69,0,0,0,1.69-1.69V53.59Z"/><rect class="cls-3" x="33.08" y="29.75" width="35.28" height="21.89"/><path class="cls-2" d="M56.94,39.06H44.49a.23.23,0,0,1-.24-.23V32.35a.23.23,0,0,1,.24-.23H56.94a.23.23,0,0,1,.24.23v6.48A.23.23,0,0,1,56.94,39.06Zm-12.22-.47h12v-6h-12Z"/><rect class="cls-2" x="52.71" y="39.41" width="12.94" height="12.94" rx="6.47"/><path d="M59.19,52.59a6.71,6.71,0,1,1,6.71-6.71A6.72,6.72,0,0,1,59.19,52.59Zm0-13a6.24,6.24,0,1,0,6.23,6.24A6.25,6.25,0,0,0,59.19,39.64Z"/><path class="cls-2" d="M56.09,51.65h6.41a2.29,2.29,0,0,1,2.29,2.29v0a.61.61,0,0,1-.61.61H54.4a.61.61,0,0,1-.61-.61v0a2.29,2.29,0,0,1,2.29-2.29Z"/><path d="M64.18,54.78H54.4a.83.83,0,0,1-.84-.84,2.53,2.53,0,0,1,2.53-2.53h6.4A2.53,2.53,0,0,1,65,53.94.83.83,0,0,1,64.18,54.78Zm-8.09-2.9A2.06,2.06,0,0,0,54,53.94a.38.38,0,0,0,.37.37h9.78a.38.38,0,0,0,.37-.37,2.06,2.06,0,0,0-2.06-2.06Z"/><path class="cls-2" d="M52.22,54.55H66.46A5.53,5.53,0,0,1,72,60.07v2a1.76,1.76,0,0,1-1.76,1.76H48.46a1.76,1.76,0,0,1-1.76-1.76v-2a5.53,5.53,0,0,1,5.53-5.53Z"/><path d="M70.11,64.06H48.57A2.12,2.12,0,0,1,46.46,62V60.18a5.87,5.87,0,0,1,5.87-5.87h14a5.88,5.88,0,0,1,5.87,5.87V62A2.12,2.12,0,0,1,70.11,64.06ZM52.33,54.78a5.4,5.4,0,0,0-5.4,5.4V62a1.65,1.65,0,0,0,1.64,1.64H70.11A1.64,1.64,0,0,0,71.75,62V60.18a5.4,5.4,0,0,0-5.39-5.4Z"/><path class="cls-2" d="M55.84,32.93h6.63a4.79,4.79,0,0,1,4.79,4.79v8.14A3.28,3.28,0,0,1,64,49.15H54.32A3.28,3.28,0,0,1,51,45.87V37.73A4.79,4.79,0,0,1,55.84,32.93Z"/><path d="M64.21,49.38H54.09a3.28,3.28,0,0,1-3.28-3.28V37.91A5.21,5.21,0,0,1,56,32.7h6.26a5.21,5.21,0,0,1,5.21,5.21V46.1A3.28,3.28,0,0,1,64.21,49.38ZM56,33.17a4.75,4.75,0,0,0-4.74,4.74V46.1a2.81,2.81,0,0,0,2.81,2.81H64.21A2.81,2.81,0,0,0,67,46.1V37.91a4.75,4.75,0,0,0-4.74-4.74Z"/><rect class="cls-2" x="57.99" y="34.9" width="2.1" height="0.93"/><path d="M60.09,36.07H58a.24.24,0,0,1-.24-.24V34.9a.24.24,0,0,1,.24-.24h2.1a.24.24,0,0,1,.24.24v.93A.24.24,0,0,1,60.09,36.07Zm-1.86-.48h1.62v-.45H58.23Z"/><path class="cls-2" d="M51,40.42h0a0,0,0,0,1,0,0v4a0,0,0,0,1,0,0h0a1.25,1.25,0,0,1-1.25-1.25V41.67A1.25,1.25,0,0,1,51,40.42Z"/><path d="M51,44.69a1.49,1.49,0,0,1-1.49-1.49V41.67A1.49,1.49,0,0,1,51,40.18a.24.24,0,0,1,.24.24v4A.23.23,0,0,1,51,44.69Zm-.23-4a1,1,0,0,0-.78,1V43.2a1,1,0,0,0,.78,1Z"/><path class="cls-2" d="M68.51,40.42h0a0,0,0,0,1,0,0v4a0,0,0,0,1,0,0h0a1.25,1.25,0,0,1-1.25-1.25V41.67A1.25,1.25,0,0,1,68.51,40.42Z" transform="translate(135.77 84.88) rotate(180)"/><path d="M67.26,44.69a.23.23,0,0,1-.24-.23v-4a.24.24,0,0,1,.24-.24,1.49,1.49,0,0,1,1.49,1.49V43.2A1.49,1.49,0,0,1,67.26,44.69Zm.23-4v3.5a1,1,0,0,0,.78-1V41.67A1,1,0,0,0,67.49,40.69Z"/></svg>